<svg xmlns="http://www.w3.org/2000/svg" viewBox="0 -0.5 23 54" shape-rendering="crispEdges">
<metadata>Made with Pixels to Svg https://codepen.io/shshaw/pen/XbxvNj</metadata>
<path stroke="#2f2a21" d="M6 0h6M4 1h10M3 2h12M3 3h12M2 4h5M9 4h5M2 5h4M2 6h4M2 7h4" />
<path stroke="#ca915d" d="M7 4h2M7 5h1M5 9h2M5 10h2M12 10h1M3 11h1M5 11h2M5 12h2M5 13h1M10 13h1" />
<path stroke="#daa36e" d="M14 4h1M8 5h3M14 5h1M7 6h5M14 6h1M7 7h1M11 7h3M12 8h1M4 9h1M3 10h1M12 11h1M3 12h1M7 12h1M11 12h1M6 13h4M6 14h8M7 15h4M8 16h5M9 17h3M7 18h1M8 19h1M8 28h1M21 28h1M2 29h1M2 30h2M8 30h1M21 30h1M3 31h5M3 32h3" />
<path stroke="#a47d62" d="M15 4h1M6 5h1M15 5h1M6 6h1M15 6h1M6 7h1M2 10h1M2 11h1M2 12h1M3 13h2M15 13h1M4 14h2M15 14h1M6 15h1M15 15h1M6 16h2M15 16h1M6 17h1M8 17h1M14 17h1M6 18h1M9 18h5M8 27h1M7 28h1M9 28h1M4 29h1M6 29h4M20 29h2M1 30h1M7 30h1M9 30h1M20 30h1M1 31h2M8 31h1M6 32h1M3 33h1M18 33h1" />
<path stroke="#deac7c" d="M11 5h3M12 6h2M12 12h2M14 13h1M14 14h1M14 15h1M13 16h2M12 17h2" />
<path stroke="#000000" d="M8 7h3M14 7h3M2 8h6M11 8h1M13 8h1M17 8h1M2 9h1M7 9h1M11 9h3M17 9h1M7 10h1M11 10h1M13 10h1M17 10h1M7 11h1M11 11h1M13 11h1M17 11h1M8 12h3M14 12h3M11 26h8M11 27h8M11 28h8M11 29h8M11 30h8M11 31h8M5 49h3M12 49h4M3 50h3M8 50h5M15 50h2M1 51h4M9 51h3M16 51h1M1 52h3M9 52h2M16 52h1M1 53h16" />
<path stroke="#f2d9b1" d="M8 8h3M14 8h2M10 9h1M9 10h2M15 10h1M8 11h1M14 11h1" />
<path stroke="#ffffff" d="M16 8h1M16 9h1M16 10h1M9 11h2M15 11h2" />
<path stroke="#383c4b" d="M3 9h1" />
<path stroke="#333333" d="M8 9h2M14 9h2M8 10h1M14 10h1" />
<path stroke="#ab7c5b" d="M4 10h1M4 12h1M20 28h1M22 28h1M21 31h1M19 32h1" />
<path stroke="#966e56" d="M4 11h1M11 13h3M7 17h1M8 18h1M9 19h2M21 27h1M22 29h1M5 30h2M22 30h1M18 32h1M4 33h1M16 33h2" />
<path stroke="#373b4d" d="M11 15h3" />
<path stroke="#28a0b4" d="M4 18h2M10 20h1M15 20h1M0 22h1M5 22h1M0 23h2M13 23h1M0 24h1M5 24h1M13 24h1M1 25h1M5 25h1M13 25h1M1 27h4M12 32h2M3 34h3M14 34h1M4 35h1M8 35h4M14 35h1M4 36h4M12 36h2" />
<path stroke="rgba(35,156,176,0.7803921568627451)" d="M2 19h1" />
<path stroke="#269fb3" d="M3 19h1" />
<path stroke="#4ecdc4" d="M4 19h1M3 20h2M11 20h1M3 21h4M9 21h4M15 21h1M2 22h3M6 22h1M14 22h1M2 23h3M6 23h1M14 23h1M2 24h3M6 24h1M14 24h1M2 25h3M6 25h1M9 25h4M3 26h2M6 26h1M5 27h3M5 28h2M5 29h1M8 33h5M7 34h7M7 35h1M12 35h2" />
<path stroke="#32c2c3" d="M5 19h1M13 19h2M5 20h2M2 21h1M7 21h2M16 21h1M1 22h1M13 22h1M5 23h1M16 23h1M1 24h1M12 24h1M16 24h1M16 25h1M1 26h1M11 32h1M6 33h2M13 33h1M6 34h1M5 35h2" />
<path stroke="#248f9b" d="M6 19h1M11 19h1M7 20h1" />
<path stroke="#2badc3" d="M7 19h1M8 20h2" />
<path stroke="#60d2cb" d="M12 19h1M12 20h3M13 21h2M7 22h6M15 22h2M7 23h6M15 23h1M7 24h5M15 24h1M7 25h2M14 25h2M7 26h2" />
<path stroke="#279fb3" d="M1 20h1M0 25h1" />
<path stroke="#2aabb9" d="M2 20h1" />
<path stroke="rgba(36,157,175,0.8666666666666667)" d="M0 21h1M0 26h1M5 26h1" />
<path stroke="#2db4bd" d="M1 21h1" />
<path stroke="#3cb9bb" d="M2 26h1" />
<path stroke="#ff483e" d="M9 26h2M9 27h2M10 28h1M10 29h1M10 30h1M9 31h2" />
<path stroke="#12bbff" d="M19 26h2M19 27h2M19 28h1M19 29h1M19 30h1M19 31h2" />
<path stroke="#7a6057" d="M1 28h4M1 29h1M4 30h1M2 32h1M7 32h1M15 32h3M5 33h1M15 33h1" />
<path stroke="#d89050" d="M3 29h1" />
<path stroke="#38c7be" d="M8 32h3" />
<path stroke="#11435e" d="M14 32h1M14 33h1" />
<path stroke="rgba(35,155,175,0.4)" d="M3 35h1" />
<path stroke="#1c2c31" d="M8 36h4M7 37h1M11 37h2M11 38h1M4 39h1M11 39h1M4 40h2M10 40h2M4 41h1M10 41h2M4 42h1M10 42h1M3 43h1M10 43h1M3 44h1M9 44h2M3 45h1M9 45h2M3 46h1M9 46h1M2 47h2M9 47h1M2 48h1M9 48h1M9 49h1" />
<path stroke="#0c151a" d="M4 37h3M10 37h1M4 38h2M10 38h1M10 39h1M9 40h1M9 41h1M9 42h1M9 43h1M8 44h1M8 45h1M8 46h1M8 47h1M8 48h1M8 49h1" />
<path stroke="#2c3434" d="M8 37h1M6 38h3M12 38h1M5 39h4M12 39h1M6 40h3M12 40h1M5 41h3M12 41h1M5 42h3M11 42h2M4 43h3M11 43h2M4 44h3M11 44h2M4 45h3M11 45h1M4 46h4M10 46h2M4 47h3M10 47h2M3 48h4M10 48h2M2 49h3M10 49h2M2 50h1" />
<path stroke="#3f4a4a" d="M9 37h1M9 38h1M9 39h1M8 41h1M8 42h1M7 43h2M7 44h1M7 45h1M7 47h1M7 48h1" />
<path stroke="#243233" d="M13 37h1M13 38h1M13 39h1M13 41h1M12 46h1M12 47h1M12 48h1" />
<path stroke="#3b504e" d="M13 40h1M13 42h1M13 43h1M13 44h1M12 45h1" />
<path stroke="#e7e3e3" d="M6 50h1M13 50h1M5 51h1M12 51h1M5 52h2M12 52h2" />
<path stroke="#fefefe" d="M7 50h1M14 50h1M6 51h3M13 51h3M7 52h2M14 52h2" />
<path stroke="#cfc4c8" d="M4 52h1M11 52h1" />
</svg>